STARTFONT 2.1
FONT -PfaEdit-Console-Medium-R-Normal--8-80-75-75-M-80-msdos-0
SIZE 8 75 75
FONTBOUNDINGBOX 8 8 0 -1
COMMENT "This bdf font was generated from a postscript font, ConsoleMedium, by pfaedit"
STARTPROPERTIES 24
FONT_ASCENT 7
FONT_DESCENT 1
QUAD_WIDTH 8
X_HEIGHT 6
CAP_HEIGHT 6
FONTNAME_REGISTRY ""
FAMILY_NAME "Console"
FOUNDRY "PfaEdit"
WEIGHT_NAME "Medium"
SETWIDTH_NAME "Normal"
SLANT "R"
ADD_STYLE_NAME ""
PIXEL_SIZE 8
POINT_SIZE 80
RESOLUTION_X 75
RESOLUTION_Y 75
RESOLUTION 75
SPACING "M"
AVERAGE_WIDTH 80
CHARSET_REGISTRY "msdos"
CHARSET_ENCODING "0"
CHARSET_COLLECTIONS "ASCII ISOLatin1Encoding msdos"
FULL_NAME "Console Medium"
COPYRIGHT "Created by Ronald Burkey with PfaEdit 1.0 (http://pfaedit.sf.net)"
ENDPROPERTIES
CHARS 254
STARTCHAR at
ENCODING 0
SWIDTH 1000 0
DWIDTH 8 0
BBX 7 7 0 0
BITMAP
7C
C6
DE
DE
DE
C0
78
ENDCHAR
STARTCHAR smileface
ENCODING 1
SWIDTH 1000 0
DWIDTH 8 0
BBX 8 8 0 -1
BITMAP
7E
81
A5
81
BD
99
81
7E
ENDCHAR
STARTCHAR invsmileface
ENCODING 2
SWIDTH 1000 0
DWIDTH 8 0
BBX 8 8 0 -1
BITMAP
7E
FF
DB
FF
C3
E7
FF
7E
ENDCHAR
STARTCHAR heart
ENCODING 3
SWIDTH 1000 0
DWIDTH 8 0
BBX 7 7 0 0
BITMAP
6C
FE
FE
FE
7C
38
10
ENDCHAR
STARTCHAR diamond
ENCODING 4
SWIDTH 1000 0
DWIDTH 8 0
BBX 7 7 0 0
BITMAP
10
38
7C
FE
7C
38
10
ENDCHAR
STARTCHAR club
ENCODING 5
SWIDTH 1000 0
DWIDTH 8 0
BBX 7 8 0 -1
BITMAP
38
7C
38
FE
FE
D6
10
38
ENDCHAR
STARTCHAR spade
ENCODING 6
SWIDTH 1000 0
DWIDTH 8 0
BBX 7 8 0 -1
BITMAP
10
38
7C
FE
FE
7C
10
38
ENDCHAR
STARTCHAR bullet
ENCODING 7
SWIDTH 1000 0
DWIDTH 8 0
BBX 2 2 3 2
BITMAP
C0
C0
ENDCHAR
STARTCHAR invbullet
ENCODING 8
SWIDTH 1000 0
DWIDTH 8 0
BBX 8 8 0 -1
BITMAP
FF
FF
E7
C3
C3
E7
FF
FF
ENDCHAR
STARTCHAR openbullet
ENCODING 9
SWIDTH 1000 0
DWIDTH 8 0
BBX 6 6 1 0
BITMAP
78
CC
84
84
CC
78
ENDCHAR
STARTCHAR invcircle
ENCODING 10
SWIDTH 1000 0
DWIDTH 8 0
BBX 8 8 0 -1
BITMAP
FF
C3
99
BD
BD
99
C3
FF
ENDCHAR
STARTCHAR male
ENCODING 11
SWIDTH 1000 0
DWIDTH 8 0
BBX 8 8 0 -1
BITMAP
0F
07
0F
7D
CC
CC
CC
78
ENDCHAR
STARTCHAR female
ENCODING 12
SWIDTH 1000 0
DWIDTH 8 0
BBX 6 8 1 -1
BITMAP
78
CC
CC
CC
78
30
FC
30
ENDCHAR
STARTCHAR musicalnote
ENCODING 13
SWIDTH 1000 0
DWIDTH 8 0
BBX 8 8 0 -1
BITMAP
3F
33
3F
30
30
70
F0
E0
ENDCHAR
STARTCHAR uni266C
ENCODING 14
SWIDTH 1000 0
DWIDTH 8 0
BBX 8 8 0 -1
BITMAP
7F
63
7F
63
63
67
E6
C0
ENDCHAR
STARTCHAR sun
ENCODING 15
SWIDTH 1000 0
DWIDTH 8 0
BBX 8 8 0 -1
BITMAP
18
DB
3C
E7
E7
3C
DB
18
ENDCHAR
STARTCHAR uni25B6
ENCODING 16
SWIDTH 1000 0
DWIDTH 8 0
BBX 7 7 0 0
BITMAP
80
E0
F8
FE
F8
E0
80
ENDCHAR
STARTCHAR uni25C0
ENCODING 17
SWIDTH 1000 0
DWIDTH 8 0
BBX 7 7 0 0
BITMAP
02
0E
3E
FE
3E
0E
02
ENDCHAR
STARTCHAR arrowupdn
ENCODING 18
SWIDTH 1000 0
DWIDTH 8 0
BBX 6 8 1 -1
BITMAP
30
78
FC
30
30
FC
78
30
ENDCHAR
STARTCHAR exclamdbl
ENCODING 19
SWIDTH 1000 0
DWIDTH 8 0
BBX 6 7 1 0
BITMAP
CC
CC
CC
CC
CC
00
CC
ENDCHAR
STARTCHAR paragraph
ENCODING 20
SWIDTH 1000 0
DWIDTH 8 0
BBX 8 7 0 0
BITMAP
7F
DB
DB
7B
1B
1B
1B
ENDCHAR
STARTCHAR section
ENCODING 21
SWIDTH 1000 0
DWIDTH 8 0
BBX 8 8 0 -1
BITMAP
3E
61
3C
66
66
3C
86
7C
ENDCHAR
STARTCHAR uni2582
ENCODING 22
SWIDTH 1000 0
DWIDTH 8 0
BBX 8 1 0 -1
BITMAP
FF
ENDCHAR
STARTCHAR arrowupdnbse
ENCODING 23
SWIDTH 1000 0
DWIDTH 8 0
BBX 8 8 0 -1
BITMAP
18
3C
7E
18
7E
3C
18
FF
ENDCHAR
STARTCHAR arrowup
ENCODING 24
SWIDTH 1000 0
DWIDTH 8 0
BBX 6 7 1 0
BITMAP
30
78
FC
30
30
30
30
ENDCHAR
STARTCHAR arrowdown
ENCODING 25
SWIDTH 1000 0
DWIDTH 8 0
BBX 6 7 1 0
BITMAP
30
30
30
30
FC
78
30
ENDCHAR
STARTCHAR arrowright
ENCODING 26
SWIDTH 1000 0
DWIDTH 8 0
BBX 7 5 0 1
BITMAP
18
0C
FE
0C
18
ENDCHAR
STARTCHAR arrowleft
ENCODING 27
SWIDTH 1000 0
DWIDTH 8 0
BBX 7 5 0 1
BITMAP
30
60
FE
60
30
ENDCHAR
STARTCHAR uni2319
ENCODING 28
SWIDTH 1000 0
DWIDTH 8 0
BBX 7 4 0 1
BITMAP
C0
C0
C0
FE
ENDCHAR
STARTCHAR arrowboth
ENCODING 29
SWIDTH 1000 0
DWIDTH 8 0
BBX 8 5 0 1
BITMAP
24
66
FF
66
24
ENDCHAR
STARTCHAR triagup
ENCODING 30
SWIDTH 1000 0
DWIDTH 8 0
BBX 8 5 0 1
BITMAP
18
3C
7E
FF
FF
ENDCHAR
STARTCHAR triagdn
ENCODING 31
SWIDTH 1000 0
DWIDTH 8 0
BBX 8 5 0 1
BITMAP
FF
FF
7E
3C
18
ENDCHAR
STARTCHAR exclam
ENCODING 33
SWIDTH 1000 0
DWIDTH 8 0
BBX 4 7 2 0
BITMAP
60
F0
F0
60
60
00
60
ENDCHAR
STARTCHAR quotedbl
ENCODING 34
SWIDTH 1000 0
DWIDTH 8 0
BBX 6 3 1 4
BITMAP
CC
CC
48
ENDCHAR
STARTCHAR numbersign
ENCODING 35
SWIDTH 1000 0
DWIDTH 8 0
BBX 7 7 0 0
BITMAP
6C
6C
FE
6C
FE
6C
6C
ENDCHAR
STARTCHAR dollar
ENCODING 36
SWIDTH 1000 0
DWIDTH 8 0
BBX 6 7 1 0
BITMAP
30
7C
C0
78
0C
F8
30
ENDCHAR
STARTCHAR percent
ENCODING 37
SWIDTH 1000 0
DWIDTH 8 0
BBX 7 6 0 0
BITMAP
C6
CC
18
30
66
C6
ENDCHAR
STARTCHAR ampersand
ENCODING 38
SWIDTH 1000 0
DWIDTH 8 0
BBX 7 7 0 0
BITMAP
38
6C
38
76
DC
CC
76
ENDCHAR
STARTCHAR quotesingle
ENCODING 39
SWIDTH 1000 0
DWIDTH 8 0
BBX 3 3 2 4
BITMAP
60
60
C0
ENDCHAR
STARTCHAR parenleft
ENCODING 40
SWIDTH 1000 0
DWIDTH 8 0
BBX 4 7 2 0
BITMAP
30
60
C0
C0
C0
60
30
ENDCHAR
STARTCHAR parenright
ENCODING 41
SWIDTH 1000 0
DWIDTH 8 0
BBX 4 7 2 0
BITMAP
C0
60
30
30
30
60
C0
ENDCHAR
STARTCHAR asterisk
ENCODING 42
SWIDTH 1000 0
DWIDTH 8 0
BBX 8 5 0 1
BITMAP
66
3C
FF
3C
66
ENDCHAR
STARTCHAR plus
ENCODING 43
SWIDTH 1000 0
DWIDTH 8 0
BBX 6 5 1 1
BITMAP
30
30
FC
30
30
ENDCHAR
STARTCHAR comma
ENCODING 44
SWIDTH 1000 0
DWIDTH 8 0
BBX 3 3 2 -1
BITMAP
60
60
C0
ENDCHAR
STARTCHAR hyphen
ENCODING 45
SWIDTH 1000 0
DWIDTH 8 0
BBX 6 1 1 3
BITMAP
FC
ENDCHAR
STARTCHAR period
ENCODING 46
SWIDTH 1000 0
DWIDTH 8 0
BBX 2 2 3 0
BITMAP
C0
C0
ENDCHAR
STARTCHAR slash
ENCODING 47
SWIDTH 1000 0
DWIDTH 8 0
BBX 7 7 0 0
BITMAP
06
0C
18
30
60
C0
80
ENDCHAR
STARTCHAR zero
ENCODING 48
SWIDTH 1000 0
DWIDTH 8 0
BBX 7 7 0 0
BITMAP
38
6C
C6
D6
C6
6C
38
ENDCHAR
STARTCHAR one
ENCODING 49
SWIDTH 1000 0
DWIDTH 8 0
BBX 6 7 1 0
BITMAP
30
70
30
30
30
30
FC
ENDCHAR
STARTCHAR two
ENCODING 50
SWIDTH 1000 0
DWIDTH 8 0
BBX 7 7 0 0
BITMAP
7C
C6
06
1C
30
66
FE
ENDCHAR
STARTCHAR three
ENCODING 51
SWIDTH 1000 0
DWIDTH 8 0
BBX 7 7 0 0
BITMAP
7C
C6
06
3C
06
C6
7C
ENDCHAR
STARTCHAR four
ENCODING 52
SWIDTH 1000 0
DWIDTH 8 0
BBX 7 7 0 0
BITMAP
1C
3C
6C
CC
FE
0C
1E
ENDCHAR
STARTCHAR five
ENCODING 53
SWIDTH 1000 0
DWIDTH 8 0
BBX 7 7 0 0
BITMAP
FE
C0
C0
FC
06
C6
7C
ENDCHAR
STARTCHAR six
ENCODING 54
SWIDTH 1000 0
DWIDTH 8 0
BBX 7 7 0 0
BITMAP
38
60
C0
FC
C6
C6
7C
ENDCHAR
STARTCHAR seven
ENCODING 55
SWIDTH 1000 0
DWIDTH 8 0
BBX 7 7 0 0
BITMAP
FE
C6
0C
18
30
30
30
ENDCHAR
STARTCHAR eight
ENCODING 56
SWIDTH 1000 0
DWIDTH 8 0
BBX 7 7 0 0
BITMAP
7C
C6
C6
7C
C6
C6
7C
ENDCHAR
STARTCHAR nine
ENCODING 57
SWIDTH 1000 0
DWIDTH 8 0
BBX 7 7 0 0
BITMAP
7C
C6
C6
7E
06
0C
78
ENDCHAR
STARTCHAR colon
ENCODING 58
SWIDTH 1000 0
DWIDTH 8 0
BBX 2 6 3 0
BITMAP
C0
C0
00
00
C0
C0
ENDCHAR
STARTCHAR semicolon
ENCODING 59
SWIDTH 1000 0
DWIDTH 8 0
BBX 3 7 2 -1
BITMAP
60
60
00
00
60
60
C0
ENDCHAR
STARTCHAR less
ENCODING 60
SWIDTH 1000 0
DWIDTH 8 0
BBX 5 7 2 0
BITMAP
18
30
60
C0
60
30
18
ENDCHAR
STARTCHAR equal
ENCODING 61
SWIDTH 1000 0
DWIDTH 8 0
BBX 6 4 1 1
BITMAP
FC
00
00
FC
ENDCHAR
STARTCHAR greater
ENCODING 62
SWIDTH 1000 0
DWIDTH 8 0
BBX 5 7 1 0
BITMAP
C0
60
30
18
30
60
C0
ENDCHAR
STARTCHAR question
ENCODING 63
SWIDTH 1000 0
DWIDTH 8 0
BBX 7 7 0 0
BITMAP
7C
C6
0C
18
18
00
18
ENDCHAR
STARTCHAR at
ENCODING 64
SWIDTH 1000 0
DWIDTH 8 0
BBX 7 7 0 0
BITMAP
7C
C6
DE
DE
DE
C0
78
ENDCHAR
STARTCHAR A
ENCODING 65
SWIDTH 1000 0
DWIDTH 8 0
BBX 7 7 0 0
BITMAP
38
6C
C6
FE
C6
C6
C6
ENDCHAR
STARTCHAR B
ENCODING 66
SWIDTH 1000 0
DWIDTH 8 0
BBX 7 7 0 0
BITMAP
FC
66
66
7C
66
66
FC
ENDCHAR
STARTCHAR C
ENCODING 67
SWIDTH 1000 0
DWIDTH 8 0
BBX 7 7 0 0
BITMAP
3C
66
C0
C0
C0
66
3C
ENDCHAR
STARTCHAR D
ENCODING 68
SWIDTH 1000 0
DWIDTH 8 0
BBX 7 7 0 0
BITMAP
F8
6C
66
66
66
6C
F8
ENDCHAR
STARTCHAR E
ENCODING 69
SWIDTH 1000 0
DWIDTH 8 0
BBX 7 7 0 0
BITMAP
FE
62
68
78
68
62
FE
ENDCHAR
STARTCHAR F
ENCODING 70
SWIDTH 1000 0
DWIDTH 8 0
BBX 7 7 0 0
BITMAP
FE
62
68
78
68
60
F0
ENDCHAR
STARTCHAR G
ENCODING 71
SWIDTH 1000 0
DWIDTH 8 0
BBX 7 7 0 0
BITMAP
3C
66
C0
C0
CE
66
3A
ENDCHAR
STARTCHAR H
ENCODING 72
SWIDTH 1000 0
DWIDTH 8 0
BBX 7 7 0 0
BITMAP
C6
C6
C6
FE
C6
C6
C6
ENDCHAR
STARTCHAR I
ENCODING 73
SWIDTH 1000 0
DWIDTH 8 0
BBX 4 7 2 0
BITMAP
F0
60
60
60
60
60
F0
ENDCHAR
STARTCHAR J
ENCODING 74
SWIDTH 1000 0
DWIDTH 8 0
BBX 7 7 0 0
BITMAP
1E
0C
0C
0C
CC
CC
78
ENDCHAR
STARTCHAR K
ENCODING 75
SWIDTH 1000 0
DWIDTH 8 0
BBX 7 7 0 0
BITMAP
E6
66
6C
78
6C
66
E6
ENDCHAR
STARTCHAR L
ENCODING 76
SWIDTH 1000 0
DWIDTH 8 0
BBX 7 7 0 0
BITMAP
F0
60
60
60
62
66
FE
ENDCHAR
STARTCHAR M
ENCODING 77
SWIDTH 1000 0
DWIDTH 8 0
BBX 7 7 0 0
BITMAP
C6
EE
FE
FE
D6
C6
C6
ENDCHAR
STARTCHAR N
ENCODING 78
SWIDTH 1000 0
DWIDTH 8 0
BBX 7 7 0 0
BITMAP
C6
E6
F6
DE
CE
C6
C6
ENDCHAR
STARTCHAR O
ENCODING 79
SWIDTH 1000 0
DWIDTH 8 0
BBX 7 7 0 0
BITMAP
7C
C6
C6
C6
C6
C6
7C
ENDCHAR
STARTCHAR P
ENCODING 80
SWIDTH 1000 0
DWIDTH 8 0
BBX 7 7 0 0
BITMAP
FC
66
66
7C
60
60
F0
ENDCHAR
STARTCHAR Q
ENCODING 81
SWIDTH 1000 0
DWIDTH 8 0
BBX 7 8 0 -1
BITMAP
7C
C6
C6
C6
C6
CE
7C
0E
ENDCHAR
STARTCHAR R
ENCODING 82
SWIDTH 1000 0
DWIDTH 8 0
BBX 7 7 0 0
BITMAP
FC
66
66
7C
6C
66
E6
ENDCHAR
STARTCHAR S
ENCODING 83
SWIDTH 1000 0
DWIDTH 8 0
BBX 6 7 1 0
BITMAP
78
CC
60
30
18
CC
78
ENDCHAR
STARTCHAR T
ENCODING 84
SWIDTH 1000 0
DWIDTH 8 0
BBX 6 7 1 0
BITMAP
FC
FC
B4
30
30
30
78
ENDCHAR
STARTCHAR U
ENCODING 85
SWIDTH 1000 0
DWIDTH 8 0
BBX 7 7 0 0
BITMAP
C6
C6
C6
C6
C6
C6
7C
ENDCHAR
STARTCHAR V
ENCODING 86
SWIDTH 1000 0
DWIDTH 8 0
BBX 7 7 0 0
BITMAP
C6
C6
C6
C6
C6
6C
38
ENDCHAR
STARTCHAR W
ENCODING 87
SWIDTH 1000 0
DWIDTH 8 0
BBX 7 7 0 0
BITMAP
C6
C6
C6
D6
D6
FE
6C
ENDCHAR
STARTCHAR X
ENCODING 88
SWIDTH 1000 0
DWIDTH 8 0
BBX 7 7 0 0
BITMAP
C6
C6
6C
38
6C
C6
C6
ENDCHAR
STARTCHAR Y
ENCODING 89
SWIDTH 1000 0
DWIDTH 8 0
BBX 6 7 1 0
BITMAP
CC
CC
CC
78
30
30
78
ENDCHAR
STARTCHAR Z
ENCODING 90
SWIDTH 1000 0
DWIDTH 8 0
BBX 7 7 0 0
BITMAP
FE
C6
8C
18
32
66
FE
ENDCHAR
STARTCHAR bracketleft
ENCODING 91
SWIDTH 1000 0
DWIDTH 8 0
BBX 4 7 2 0
BITMAP
F0
C0
C0
C0
C0
C0
F0
ENDCHAR
STARTCHAR backslash
ENCODING 92
SWIDTH 1000 0
DWIDTH 8 0
BBX 7 7 0 0
BITMAP
C0
60
30
18
0C
06
02
ENDCHAR
STARTCHAR bracketright
ENCODING 93
SWIDTH 1000 0
DWIDTH 8 0
BBX 4 7 2 0
BITMAP
F0
30
30
30
30
30
F0
ENDCHAR
STARTCHAR asciicircum
ENCODING 94
SWIDTH 1000 0
DWIDTH 8 0
BBX 7 4 0 3
BITMAP
10
38
6C
C6
ENDCHAR
STARTCHAR underscore
ENCODING 95
SWIDTH 1000 0
DWIDTH 8 0
BBX 8 1 0 -1
BITMAP
FF
ENDCHAR
STARTCHAR grave
ENCODING 96
SWIDTH 1000 0
DWIDTH 8 0
BBX 4 3 2 4
BITMAP
C0
60
30
ENDCHAR
STARTCHAR a
ENCODING 97
SWIDTH 1000 0
DWIDTH 8 0
BBX 7 5 0 0
BITMAP
78
0C
7C
CC
76
ENDCHAR
STARTCHAR b
ENCODING 98
SWIDTH 1000 0
DWIDTH 8 0
BBX 7 7 0 0
BITMAP
E0
60
7C
66
66
66
DC
ENDCHAR
STARTCHAR c
ENCODING 99
SWIDTH 1000 0
DWIDTH 8 0
BBX 7 5 0 0
BITMAP
7C
C6
C0
C6
7C
ENDCHAR
STARTCHAR d
ENCODING 100
SWIDTH 1000 0
DWIDTH 8 0
BBX 7 7 0 0
BITMAP
1C
0C
7C
CC
CC
CC
76
ENDCHAR
STARTCHAR e
ENCODING 101
SWIDTH 1000 0
DWIDTH 8 0
BBX 7 5 0 0
BITMAP
7C
C6
FE
C0
7C
ENDCHAR
STARTCHAR f
ENCODING 102
SWIDTH 1000 0
DWIDTH 8 0
BBX 7 7 0 0
BITMAP
3C
66
60
F8
60
60
F0
ENDCHAR
STARTCHAR g
ENCODING 103
SWIDTH 1000 0
DWIDTH 8 0
BBX 7 6 0 -1
BITMAP
76
CC
CC
7C
0C
F8
ENDCHAR
STARTCHAR h
ENCODING 104
SWIDTH 1000 0
DWIDTH 8 0
BBX 7 7 0 0
BITMAP
E0
60
6C
76
66
66
E6
ENDCHAR
STARTCHAR i
ENCODING 105
SWIDTH 1000 0
DWIDTH 8 0
BBX 4 7 2 0
BITMAP
60
00
E0
60
60
60
F0
ENDCHAR
STARTCHAR j
ENCODING 106
SWIDTH 1000 0
DWIDTH 8 0
BBX 6 8 1 -1
BITMAP
0C
00
0C
0C
0C
CC
CC
78
ENDCHAR
STARTCHAR k
ENCODING 107
SWIDTH 1000 0
DWIDTH 8 0
BBX 7 7 0 0
BITMAP
E0
60
66
6C
78
6C
E6
ENDCHAR
STARTCHAR l
ENCODING 108
SWIDTH 1000 0
DWIDTH 8 0
BBX 4 7 2 0
BITMAP
E0
60
60
60
60
60
F0
ENDCHAR
STARTCHAR m
ENCODING 109
SWIDTH 1000 0
DWIDTH 8 0
BBX 7 5 0 0
BITMAP
EC
FE
D6
D6
D6
ENDCHAR
STARTCHAR n
ENCODING 110
SWIDTH 1000 0
DWIDTH 8 0
BBX 7 5 0 0
BITMAP
DC
66
66
66
66
ENDCHAR
STARTCHAR o
ENCODING 111
SWIDTH 1000 0
DWIDTH 8 0
BBX 7 5 0 0
BITMAP
7C
C6
C6
C6
7C
ENDCHAR
STARTCHAR p
ENCODING 112
SWIDTH 1000 0
DWIDTH 8 0
BBX 7 6 0 -1
BITMAP
DC
66
66
7C
60
F0
ENDCHAR
STARTCHAR q
ENCODING 113
SWIDTH 1000 0
DWIDTH 8 0
BBX 7 6 0 -1
BITMAP
76
CC
CC
7C
0C
1E
ENDCHAR
STARTCHAR r
ENCODING 114
SWIDTH 1000 0
DWIDTH 8 0
BBX 7 5 0 0
BITMAP
DC
76
60
60
F0
ENDCHAR
STARTCHAR s
ENCODING 115
SWIDTH 1000 0
DWIDTH 8 0
BBX 7 5 0 0
BITMAP
7E
C0
7C
06
FC
ENDCHAR
STARTCHAR t
ENCODING 116
SWIDTH 1000 0
DWIDTH 8 0
BBX 7 7 0 0
BITMAP
30
30
FC
30
30
36
1C
ENDCHAR
STARTCHAR u
ENCODING 117
SWIDTH 1000 0
DWIDTH 8 0
BBX 7 5 0 0
BITMAP
CC
CC
CC
CC
76
ENDCHAR
STARTCHAR v
ENCODING 118
SWIDTH 1000 0
DWIDTH 8 0
BBX 7 5 0 0
BITMAP
C6
C6
C6
6C
38
ENDCHAR
STARTCHAR w
ENCODING 119
SWIDTH 1000 0
DWIDTH 8 0
BBX 7 5 0 0
BITMAP
C6
D6
D6
FE
6C
ENDCHAR
STARTCHAR x
ENCODING 120
SWIDTH 1000 0
DWIDTH 8 0
BBX 7 5 0 0
BITMAP
C6
6C
38
6C
C6
ENDCHAR
STARTCHAR y
ENCODING 121
SWIDTH 1000 0
DWIDTH 8 0
BBX 7 6 0 -1
BITMAP
C6
C6
C6
7E
06
FC
ENDCHAR
STARTCHAR z
ENCODING 122
SWIDTH 1000 0
DWIDTH 8 0
BBX 6 5 1 0
BITMAP
FC
98
30
64
FC
ENDCHAR
STARTCHAR braceleft
ENCODING 123
SWIDTH 1000 0
DWIDTH 8 0
BBX 6 7 1 0
BITMAP
1C
30
30
E0
30
30
1C
ENDCHAR
STARTCHAR bar
ENCODING 124
SWIDTH 1000 0
DWIDTH 8 0
BBX 2 7 3 0
BITMAP
C0
C0
C0
C0
C0
C0
C0
ENDCHAR
STARTCHAR braceright
ENCODING 125
SWIDTH 1000 0
DWIDTH 8 0
BBX 6 7 1 0
BITMAP
E0
30
30
1C
30
30
E0
ENDCHAR
STARTCHAR asciitilde
ENCODING 126
SWIDTH 1000 0
DWIDTH 8 0
BBX 7 2 0 5
BITMAP
76
DC
ENDCHAR
STARTCHAR space
ENCODING 127
SWIDTH 1000 0
DWIDTH 8 0
BBX 7 6 0 0
BITMAP
10
38
6C
C6
C6
FE
ENDCHAR
STARTCHAR Ccedilla
ENCODING 128
SWIDTH 1000 0
DWIDTH 8 0
BBX 7 8 0 -1
BITMAP
7C
C6
C0
C0
C6
7C
0C
78
ENDCHAR
STARTCHAR udieresis
ENCODING 129
SWIDTH 1000 0
DWIDTH 8 0
BBX 7 7 0 0
BITMAP
CC
00
CC
CC
CC
CC
76
ENDCHAR
STARTCHAR eacute
ENCODING 130
SWIDTH 1000 0
DWIDTH 8 0
BBX 7 7 0 0
BITMAP
0C
18
7C
C6
FE
C0
7C
ENDCHAR
STARTCHAR acircumflex
ENCODING 131
SWIDTH 1000 0
DWIDTH 8 0
BBX 7 7 0 0
BITMAP
7C
82
78
0C
7C
CC
76
ENDCHAR
STARTCHAR adieresis
ENCODING 132
SWIDTH 1000 0
DWIDTH 8 0
BBX 7 7 0 0
BITMAP
C6
00
78
0C
7C
CC
76
ENDCHAR
STARTCHAR agrave
ENCODING 133
SWIDTH 1000 0
DWIDTH 8 0
BBX 7 7 0 0
BITMAP
30
18
78
0C
7C
CC
76
ENDCHAR
STARTCHAR aring
ENCODING 134
SWIDTH 1000 0
DWIDTH 8 0
BBX 7 7 0 0
BITMAP
30
30
78
0C
7C
CC
76
ENDCHAR
STARTCHAR ccedilla
ENCODING 135
SWIDTH 1000 0
DWIDTH 8 0
BBX 7 6 0 -1
BITMAP
7E
C0
C0
7E
0C
38
ENDCHAR
STARTCHAR ecircumflex
ENCODING 136
SWIDTH 1000 0
DWIDTH 8 0
BBX 7 7 0 0
BITMAP
7C
82
7C
C6
FE
C0
7C
ENDCHAR
STARTCHAR edieresis
ENCODING 137
SWIDTH 1000 0
DWIDTH 8 0
BBX 7 7 0 0
BITMAP
C6
00
7C
C6
FE
C0
7C
ENDCHAR
STARTCHAR egrave
ENCODING 138
SWIDTH 1000 0
DWIDTH 8 0
BBX 7 7 0 0
BITMAP
30
18
7C
C6
FE
C0
7C
ENDCHAR
STARTCHAR idieresis
ENCODING 139
SWIDTH 1000 0
DWIDTH 8 0
BBX 6 7 1 0
BITMAP
CC
00
70
30
30
30
78
ENDCHAR
STARTCHAR icircumflex
ENCODING 140
SWIDTH 1000 0
DWIDTH 8 0
BBX 7 7 0 0
BITMAP
7C
82
38
18
18
18
3C
ENDCHAR
STARTCHAR igrave
ENCODING 141
SWIDTH 1000 0
DWIDTH 8 0
BBX 4 7 2 0
BITMAP
C0
60
00
E0
60
60
F0
ENDCHAR
STARTCHAR Adieresis
ENCODING 142
SWIDTH 1000 0
DWIDTH 8 0
BBX 7 7 0 0
BITMAP
C6
38
6C
C6
FE
C6
C6
ENDCHAR
STARTCHAR Aring
ENCODING 143
SWIDTH 1000 0
DWIDTH 8 0
BBX 7 7 0 0
BITMAP
38
6C
7C
C6
FE
C6
C6
ENDCHAR
STARTCHAR Eacute
ENCODING 144
SWIDTH 1000 0
DWIDTH 8 0
BBX 7 7 0 0
BITMAP
18
30
FE
C0
F8
C0
FE
ENDCHAR
STARTCHAR ae
ENCODING 145
SWIDTH 1000 0
DWIDTH 8 0
BBX 7 5 0 0
BITMAP
7E
18
7E
D8
7E
ENDCHAR
STARTCHAR AE
ENCODING 146
SWIDTH 1000 0
DWIDTH 8 0
BBX 7 7 0 0
BITMAP
3E
6C
CC
FE
CC
CC
CE
ENDCHAR
STARTCHAR ocircumflex
ENCODING 147
SWIDTH 1000 0
DWIDTH 8 0
BBX 7 7 0 0
BITMAP
7C
82
7C
C6
C6
C6
7C
ENDCHAR
STARTCHAR odieresis
ENCODING 148
SWIDTH 1000 0
DWIDTH 8 0
BBX 7 7 0 0
BITMAP
C6
00
7C
C6
C6
C6
7C
ENDCHAR
STARTCHAR ograve
ENCODING 149
SWIDTH 1000 0
DWIDTH 8 0
BBX 7 7 0 0
BITMAP
30
18
7C
C6
C6
C6
7C
ENDCHAR
STARTCHAR ucircumflex
ENCODING 150
SWIDTH 1000 0
DWIDTH 8 0
BBX 7 7 0 0
BITMAP
78
84
00
CC
CC
CC
76
ENDCHAR
STARTCHAR ugrave
ENCODING 151
SWIDTH 1000 0
DWIDTH 8 0
BBX 7 7 0 0
BITMAP
60
30
CC
CC
CC
CC
76
ENDCHAR
STARTCHAR ydieresis
ENCODING 152
SWIDTH 1000 0
DWIDTH 8 0
BBX 7 8 0 -1
BITMAP
C6
00
C6
C6
C6
7E
06
FC
ENDCHAR
STARTCHAR Odieresis
ENCODING 153
SWIDTH 1000 0
DWIDTH 8 0
BBX 7 7 0 0
BITMAP
C6
38
6C
C6
C6
6C
38
ENDCHAR
STARTCHAR Udieresis
ENCODING 154
SWIDTH 1000 0
DWIDTH 8 0
BBX 7 7 0 0
BITMAP
C6
00
C6
C6
C6
C6
7C
ENDCHAR
STARTCHAR cent
ENCODING 155
SWIDTH 1000 0
DWIDTH 8 0
BBX 7 8 0 -1
BITMAP
18
18
7E
C0
C0
7E
18
18
ENDCHAR
STARTCHAR sterling
ENCODING 156
SWIDTH 1000 0
DWIDTH 8 0
BBX 7 7 0 0
BITMAP
38
6C
64
F0
60
66
FC
ENDCHAR
STARTCHAR yen
ENCODING 157
SWIDTH 1000 0
DWIDTH 8 0
BBX 6 8 1 -1
BITMAP
CC
CC
78
FC
30
FC
30
30
ENDCHAR
STARTCHAR registered
ENCODING 158
SWIDTH 1000 0
DWIDTH 8 0
BBX 8 8 0 -1
BITMAP
F8
CC
CC
FA
C6
CF
C6
C7
ENDCHAR
STARTCHAR florin
ENCODING 159
SWIDTH 1000 0
DWIDTH 8 0
BBX 8 7 0 0
BITMAP
0E
1B
18
3C
18
D8
70
ENDCHAR
STARTCHAR aacute
ENCODING 160
SWIDTH 1000 0
DWIDTH 8 0
BBX 7 7 0 0
BITMAP
18
30
78
0C
7C
CC
76
ENDCHAR
STARTCHAR iacute
ENCODING 161
SWIDTH 1000 0
DWIDTH 8 0
BBX 4 7 2 0
BITMAP
60
C0
00
E0
60
60
F0
ENDCHAR
STARTCHAR oacute
ENCODING 162
SWIDTH 1000 0
DWIDTH 8 0
BBX 7 7 0 0
BITMAP
0C
18
7C
C6
C6
C6
7C
ENDCHAR
STARTCHAR uacute
ENCODING 163
SWIDTH 1000 0
DWIDTH 8 0
BBX 7 7 0 0
BITMAP
18
30
CC
CC
CC
CC
76
ENDCHAR
STARTCHAR ntilde
ENCODING 164
SWIDTH 1000 0
DWIDTH 8 0
BBX 7 7 0 0
BITMAP
76
DC
00
DC
66
66
66
ENDCHAR
STARTCHAR Ntilde
ENCODING 165
SWIDTH 1000 0
DWIDTH 8 0
BBX 7 7 0 0
BITMAP
76
DC
00
E6
F6
DE
CE
ENDCHAR
STARTCHAR ordfeminine
ENCODING 166
SWIDTH 1000 0
DWIDTH 8 0
BBX 6 6 1 1
BITMAP
78
D8
D8
7C
00
FC
ENDCHAR
STARTCHAR ordmasculine
ENCODING 167
SWIDTH 1000 0
DWIDTH 8 0
BBX 5 6 1 1
BITMAP
70
D8
D8
70
00
F8
ENDCHAR
STARTCHAR questiondown
ENCODING 168
SWIDTH 1000 0
DWIDTH 8 0
BBX 7 7 1 0
BITMAP
30
00
30
30
60
C6
7C
ENDCHAR
STARTCHAR uni231C
ENCODING 169
SWIDTH 1000 0
DWIDTH 8 0
BBX 7 3 0 1
BITMAP
FE
C0
C0
ENDCHAR
STARTCHAR uni231D
ENCODING 170
SWIDTH 1000 0
DWIDTH 8 0
BBX 7 3 0 1
BITMAP
FE
06
06
ENDCHAR
STARTCHAR onehalf
ENCODING 171
SWIDTH 1000 0
DWIDTH 8 0
BBX 8 8 0 -1
BITMAP
63
E6
6C
7E
33
66
CC
0F
ENDCHAR
STARTCHAR onequarter
ENCODING 172
SWIDTH 1000 0
DWIDTH 8 0
BBX 8 8 0 -1
BITMAP
63
E6
6C
7A
36
6A
DF
06
ENDCHAR
STARTCHAR exclamdown
ENCODING 173
SWIDTH 1000 0
DWIDTH 8 0
BBX 4 7 2 0
BITMAP
60
00
60
60
F0
F0
60
ENDCHAR
STARTCHAR guillemotleft
ENCODING 174
SWIDTH 1000 0
DWIDTH 8 0
BBX 8 5 0 1
BITMAP
33
66
CC
66
33
ENDCHAR
STARTCHAR guillemotright
ENCODING 175
SWIDTH 1000 0
DWIDTH 8 0
BBX 8 5 0 1
BITMAP
CC
66
33
66
CC
ENDCHAR
STARTCHAR ltshade
ENCODING 176
SWIDTH 1000 0
DWIDTH 8 0
BBX 7 8 0 -1
BITMAP
22
88
22
88
22
88
22
88
ENDCHAR
STARTCHAR shade
ENCODING 177
SWIDTH 1000 0
DWIDTH 8 0
BBX 8 8 0 -1
BITMAP
55
AA
55
AA
55
AA
55
AA
ENDCHAR
STARTCHAR dkshade
ENCODING 178
SWIDTH 1000 0
DWIDTH 8 0
BBX 8 8 0 -1
BITMAP
77
DD
77
DD
77
DD
77
DD
ENDCHAR
STARTCHAR SF110000
ENCODING 179
SWIDTH 1000 0
DWIDTH 8 0
BBX 2 8 3 -1
BITMAP
C0
C0
C0
C0
C0
C0
C0
C0
ENDCHAR
STARTCHAR SF090000
ENCODING 180
SWIDTH 1000 0
DWIDTH 8 0
BBX 5 8 0 -1
BITMAP
18
18
18
18
F8
18
18
18
ENDCHAR
STARTCHAR SF190000
ENCODING 181
SWIDTH 1000 0
DWIDTH 8 0
BBX 5 8 0 -1
BITMAP
18
18
F8
18
F8
18
18
18
ENDCHAR
STARTCHAR SF200000
ENCODING 182
SWIDTH 1000 0
DWIDTH 8 0
BBX 7 8 0 -1
BITMAP
36
36
36
36
F6
36
36
36
ENDCHAR
STARTCHAR SF210000
ENCODING 183
SWIDTH 1000 0
DWIDTH 8 0
BBX 7 4 0 -1
BITMAP
FE
36
36
36
ENDCHAR
STARTCHAR SF220000
ENCODING 184
SWIDTH 1000 0
DWIDTH 8 0
BBX 5 6 0 -1
BITMAP
F8
18
F8
18
18
18
ENDCHAR
STARTCHAR SF230000
ENCODING 185
SWIDTH 1000 0
DWIDTH 8 0
BBX 7 8 0 -1
BITMAP
36
36
F6
06
F6
36
36
36
ENDCHAR
STARTCHAR SF240000
ENCODING 186
SWIDTH 1000 0
DWIDTH 8 0
BBX 5 8 2 -1
BITMAP
D8
D8
D8
D8
D8
D8
D8
D8
ENDCHAR
STARTCHAR SF250000
ENCODING 187
SWIDTH 1000 0
DWIDTH 8 0
BBX 7 6 0 -1
BITMAP
FE
06
F6
36
36
36
ENDCHAR
STARTCHAR SF260000
ENCODING 188
SWIDTH 1000 0
DWIDTH 8 0
BBX 7 5 0 2
BITMAP
36
36
F6
06
FE
ENDCHAR
STARTCHAR SF270000
ENCODING 189
SWIDTH 1000 0
DWIDTH 8 0
BBX 7 5 0 2
BITMAP
36
36
36
36
FE
ENDCHAR
STARTCHAR SF280000
ENCODING 190
SWIDTH 1000 0
DWIDTH 8 0
BBX 5 5 0 2
BITMAP
18
18
F8
18
F8
ENDCHAR
STARTCHAR SF030000
ENCODING 191
SWIDTH 1000 0
DWIDTH 8 0
BBX 5 4 0 -1
BITMAP
F8
18
18
18
ENDCHAR
STARTCHAR SF020000
ENCODING 192
SWIDTH 1000 0
DWIDTH 8 0
BBX 5 5 3 2
BITMAP
C0
C0
C0
C0
F8
ENDCHAR
STARTCHAR SF070000
ENCODING 193
SWIDTH 1000 0
DWIDTH 8 0
BBX 8 5 0 2
BITMAP
18
18
18
18
FF
ENDCHAR
STARTCHAR SF060000
ENCODING 194
SWIDTH 1000 0
DWIDTH 8 0
BBX 8 4 0 -1
BITMAP
FF
18
18
18
ENDCHAR
STARTCHAR SF080000
ENCODING 195
SWIDTH 1000 0
DWIDTH 8 0
BBX 5 8 3 -1
BITMAP
C0
C0
C0
C0
F8
C0
C0
C0
ENDCHAR
STARTCHAR SF100000
ENCODING 196
SWIDTH 1000 0
DWIDTH 8 0
BBX 8 1 0 2
BITMAP
FF
ENDCHAR
STARTCHAR SF050000
ENCODING 197
SWIDTH 1000 0
DWIDTH 8 0
BBX 8 8 0 -1
BITMAP
18
18
18
18
FF
18
18
18
ENDCHAR
STARTCHAR SF360000
ENCODING 198
SWIDTH 1000 0
DWIDTH 8 0
BBX 5 8 3 -1
BITMAP
C0
C0
F8
C0
F8
C0
C0
C0
ENDCHAR
STARTCHAR SF370000
ENCODING 199
SWIDTH 1000 0
DWIDTH 8 0
BBX 6 8 2 -1
BITMAP
D8
D8
D8
D8
DC
D8
D8
D8
ENDCHAR
STARTCHAR SF380000
ENCODING 200
SWIDTH 1000 0
DWIDTH 8 0
BBX 6 5 2 2
BITMAP
D8
D8
DC
C0
FC
ENDCHAR
STARTCHAR SF390000
ENCODING 201
SWIDTH 1000 0
DWIDTH 8 0
BBX 6 6 2 -1
BITMAP
FC
C0
DC
D8
D8
D8
ENDCHAR
STARTCHAR SF400000
ENCODING 202
SWIDTH 1000 0
DWIDTH 8 0
BBX 8 5 0 2
BITMAP
36
36
F7
00
FF
ENDCHAR
STARTCHAR SF410000
ENCODING 203
SWIDTH 1000 0
DWIDTH 8 0
BBX 8 6 0 -1
BITMAP
FF
00
F7
36
36
36
ENDCHAR
STARTCHAR SF420000
ENCODING 204
SWIDTH 1000 0
DWIDTH 8 0
BBX 6 8 2 -1
BITMAP
D8
D8
DC
C0
DC
D8
D8
D8
ENDCHAR
STARTCHAR SF430000
ENCODING 205
SWIDTH 1000 0
DWIDTH 8 0
BBX 8 3 0 2
BITMAP
FF
00
FF
ENDCHAR
STARTCHAR SF440000
ENCODING 206
SWIDTH 1000 0
DWIDTH 8 0
BBX 8 8 0 -1
BITMAP
36
36
F7
00
F7
36
36
36
ENDCHAR
STARTCHAR SF450000
ENCODING 207
SWIDTH 1000 0
DWIDTH 8 0
BBX 8 5 0 2
BITMAP
18
18
FF
00
FF
ENDCHAR
STARTCHAR SF460000
ENCODING 208
SWIDTH 1000 0
DWIDTH 8 0
BBX 8 5 0 2
BITMAP
36
36
36
36
FF
ENDCHAR
STARTCHAR SF470000
ENCODING 209
SWIDTH 1000 0
DWIDTH 8 0
BBX 8 6 0 -1
BITMAP
FF
00
FF
18
18
18
ENDCHAR
STARTCHAR SF480000
ENCODING 210
SWIDTH 1000 0
DWIDTH 8 0
BBX 8 4 0 -1
BITMAP
FF
36
36
36
ENDCHAR
STARTCHAR SF490000
ENCODING 211
SWIDTH 1000 0
DWIDTH 8 0
BBX 6 5 2 2
BITMAP
D8
D8
D8
D8
FC
ENDCHAR
STARTCHAR SF500000
ENCODING 212
SWIDTH 1000 0
DWIDTH 8 0
BBX 5 5 3 2
BITMAP
C0
C0
F8
C0
F8
ENDCHAR
STARTCHAR SF510000
ENCODING 213
SWIDTH 1000 0
DWIDTH 8 0
BBX 5 6 3 -1
BITMAP
F8
C0
F8
C0
C0
C0
ENDCHAR
STARTCHAR SF520000
ENCODING 214
SWIDTH 1000 0
DWIDTH 8 0
BBX 6 4 2 -1
BITMAP
FC
D8
D8
D8
ENDCHAR
STARTCHAR SF530000
ENCODING 215
SWIDTH 1000 0
DWIDTH 8 0
BBX 8 8 0 -1
BITMAP
36
36
36
36
FF
36
36
36
ENDCHAR
STARTCHAR SF540000
ENCODING 216
SWIDTH 1000 0
DWIDTH 8 0
BBX 8 8 0 -1
BITMAP
18
18
FF
18
FF
18
18
18
ENDCHAR
STARTCHAR SF040000
ENCODING 217
SWIDTH 1000 0
DWIDTH 8 0
BBX 5 5 0 2
BITMAP
18
18
18
18
F8
ENDCHAR
STARTCHAR SF010000
ENCODING 218
SWIDTH 1000 0
DWIDTH 8 0
BBX 5 4 3 -1
BITMAP
F8
C0
C0
C0
ENDCHAR
STARTCHAR block
ENCODING 219
SWIDTH 1000 0
DWIDTH 8 0
BBX 8 8 0 -1
BITMAP
FF
FF
FF
FF
FF
FF
FF
FF
ENDCHAR
STARTCHAR uni2585
ENCODING 220
SWIDTH 1000 0
DWIDTH 8 0
BBX 8 4 0 -1
BITMAP
FF
FF
FF
FF
ENDCHAR
STARTCHAR uni258B
ENCODING 221
SWIDTH 1000 0
DWIDTH 8 0
BBX 4 8 0 -1
BITMAP
F0
F0
F0
F0
F0
F0
F0
F0
ENDCHAR
STARTCHAR uni258A
ENCODING 222
SWIDTH 1000 0
DWIDTH 8 0
BBX 4 8 4 -1
BITMAP
F0
F0
F0
F0
F0
F0
F0
F0
ENDCHAR
STARTCHAR upblock
ENCODING 223
SWIDTH 1000 0
DWIDTH 8 0
BBX 8 4 0 3
BITMAP
FF
FF
FF
FF
ENDCHAR
STARTCHAR alpha
ENCODING 224
SWIDTH 1000 0
DWIDTH 8 0
BBX 7 5 0 0
BITMAP
76
DC
C8
DC
76
ENDCHAR
STARTCHAR beta
ENCODING 225
SWIDTH 1000 0
DWIDTH 8 0
BBX 7 7 0 0
BITMAP
78
CC
CC
D8
CC
C6
CC
ENDCHAR
STARTCHAR Gamma
ENCODING 226
SWIDTH 1000 0
DWIDTH 8 0
BBX 7 7 0 0
BITMAP
FE
C6
C0
C0
C0
C0
C0
ENDCHAR
STARTCHAR pi
ENCODING 227
SWIDTH 1000 0
DWIDTH 8 0
BBX 7 5 0 0
BITMAP
FE
6C
6C
6C
6C
ENDCHAR
STARTCHAR Sigma
ENCODING 228
SWIDTH 1000 0
DWIDTH 8 0
BBX 7 7 0 0
BITMAP
FE
C6
60
30
60
C6
FE
ENDCHAR
STARTCHAR sigma
ENCODING 229
SWIDTH 1000 0
DWIDTH 8 0
BBX 7 5 0 0
BITMAP
7E
D8
D8
D8
70
ENDCHAR
STARTCHAR uni03BC
ENCODING 230
SWIDTH 1000 0
DWIDTH 8 0
BBX 7 6 0 -1
BITMAP
66
66
66
66
7C
C0
ENDCHAR
STARTCHAR tau
ENCODING 231
SWIDTH 1000 0
DWIDTH 8 0
BBX 7 5 0 0
BITMAP
7E
D8
18
18
1C
ENDCHAR
STARTCHAR Phi
ENCODING 232
SWIDTH 1000 0
DWIDTH 8 0
BBX 6 8 1 -1
BITMAP
FC
30
78
CC
CC
78
30
FC
ENDCHAR
STARTCHAR Theta
ENCODING 233
SWIDTH 1000 0
DWIDTH 8 0
BBX 7 7 0 0
BITMAP
38
6C
C6
FE
C6
6C
38
ENDCHAR
STARTCHAR uni2126
ENCODING 234
SWIDTH 1000 0
DWIDTH 8 0
BBX 7 7 0 0
BITMAP
38
6C
C6
C6
6C
6C
EE
ENDCHAR
STARTCHAR delta
ENCODING 235
SWIDTH 1000 0
DWIDTH 8 0
BBX 6 7 1 0
BITMAP
1C
30
18
7C
CC
CC
78
ENDCHAR
STARTCHAR infinity
ENCODING 236
SWIDTH 1000 0
DWIDTH 8 0
BBX 8 4 0 1
BITMAP
7E
DB
DB
7E
ENDCHAR
STARTCHAR emptyset
ENCODING 237
SWIDTH 1000 0
DWIDTH 8 0
BBX 8 8 0 -1
BITMAP
06
0C
7E
DB
DB
7E
60
C0
ENDCHAR
STARTCHAR element
ENCODING 238
SWIDTH 1000 0
DWIDTH 8 0
BBX 6 7 1 0
BITMAP
3C
60
C0
FC
C0
60
3C
ENDCHAR
STARTCHAR intersection
ENCODING 239
SWIDTH 1000 0
DWIDTH 8 0
BBX 7 6 0 0
BITMAP
7C
C6
C6
C6
C6
C6
ENDCHAR
STARTCHAR equivalence
ENCODING 240
SWIDTH 1000 0
DWIDTH 8 0
BBX 7 5 0 1
BITMAP
FE
00
FE
00
FE
ENDCHAR
STARTCHAR plusminus
ENCODING 241
SWIDTH 1000 0
DWIDTH 8 0
BBX 6 7 1 0
BITMAP
30
30
FC
30
30
00
FC
ENDCHAR
STARTCHAR greaterequal
ENCODING 242
SWIDTH 1000 0
DWIDTH 8 0
BBX 6 7 1 0
BITMAP
60
30
18
30
60
00
FC
ENDCHAR
STARTCHAR lessequal
ENCODING 243
SWIDTH 1000 0
DWIDTH 8 0
BBX 6 7 1 0
BITMAP
18
30
60
30
18
00
FC
ENDCHAR
STARTCHAR integraltp
ENCODING 244
SWIDTH 1000 0
DWIDTH 8 0
BBX 5 8 3 -1
BITMAP
70
D8
D8
C0
C0
C0
C0
C0
ENDCHAR
STARTCHAR integralbt
ENCODING 245
SWIDTH 1000 0
DWIDTH 8 0
BBX 5 8 0 -1
BITMAP
18
18
18
18
18
D8
D8
70
ENDCHAR
STARTCHAR divide
ENCODING 246
SWIDTH 1000 0
DWIDTH 8 0
BBX 6 5 1 1
BITMAP
30
00
FC
00
30
ENDCHAR
STARTCHAR approxequal
ENCODING 247
SWIDTH 1000 0
DWIDTH 8 0
BBX 7 5 0 1
BITMAP
76
DC
00
76
DC
ENDCHAR
STARTCHAR degree
ENCODING 248
SWIDTH 1000 0
DWIDTH 8 0
BBX 5 4 1 3
BITMAP
70
D8
D8
70
ENDCHAR
STARTCHAR uni2219
ENCODING 249
SWIDTH 1000 0
DWIDTH 8 0
BBX 4 4 2 1
BITMAP
60
F0
F0
60
ENDCHAR
STARTCHAR softhyphen
ENCODING 250
SWIDTH 1000 0
DWIDTH 8 0
BBX 2 1 3 3
BITMAP
C0
ENDCHAR
STARTCHAR radical
ENCODING 251
SWIDTH 1000 0
DWIDTH 8 0
BBX 8 8 0 -1
BITMAP
0F
0C
0C
0C
EC
6C
3C
1C
ENDCHAR
STARTCHAR nsuperior
ENCODING 252
SWIDTH 1000 0
DWIDTH 8 0
BBX 6 5 1 2
BITMAP
D8
6C
6C
6C
6C
ENDCHAR
STARTCHAR twosuperior
ENCODING 253
SWIDTH 1000 0
DWIDTH 8 0
BBX 5 5 1 2
BITMAP
F0
18
30
60
F8
ENDCHAR
STARTCHAR uni220E
ENCODING 254
SWIDTH 1000 0
DWIDTH 8 0
BBX 4 4 2 1
BITMAP
F0
F0
F0
F0
ENDCHAR
ENDFONT
